<mxfile host="app.diagrams.net" modified="2020-11-20T16:21:05.369Z" agent="5.0 (Windows NT 10.0; Win64; x64) AppleWebKit/537.36 (KHTML, like Gecko) Chrome/87.0.4280.66 Safari/537.36" etag="GFu52RO_Cj6JePp9OqjY" version="13.10.0" type="github">
  <diagram name="Page-1" id="c4acf3e9-155e-7222-9cf6-157b1a14988f">
    <mxGraphModel dx="1108" dy="482" grid="1" gridSize="10" guides="1" tooltips="1" connect="1" arrows="1" fold="1" page="1" pageScale="1" pageWidth="850" pageHeight="1100" background="#ffffff" math="0" shadow="0">
      <root>
        <mxCell id="0" />
        <mxCell id="1" parent="0" />
        <mxCell id="vYBXI7EpYj5DPCw9PO8Z-1" value="Ventas &#xa;Productos/Servicios" style="swimlane;fontStyle=0;childLayout=stackLayout;horizontal=1;startSize=26;fillColor=none;horizontalStack=0;resizeParent=1;resizeParentMax=0;resizeLast=0;collapsible=1;marginBottom=0;" vertex="1" parent="1">
          <mxGeometry x="140" y="390" width="140" height="104" as="geometry" />
        </mxCell>
        <mxCell id="vYBXI7EpYj5DPCw9PO8Z-2" value="+ Numero" style="text;strokeColor=none;fillColor=none;align=left;verticalAlign=top;spacingLeft=4;spacingRight=4;overflow=hidden;rotatable=0;points=[[0,0.5],[1,0.5]];portConstraint=eastwest;" vertex="1" parent="vYBXI7EpYj5DPCw9PO8Z-1">
          <mxGeometry y="26" width="140" height="26" as="geometry" />
        </mxCell>
        <mxCell id="vYBXI7EpYj5DPCw9PO8Z-3" value="+ Fecha" style="text;strokeColor=none;fillColor=none;align=left;verticalAlign=top;spacingLeft=4;spacingRight=4;overflow=hidden;rotatable=0;points=[[0,0.5],[1,0.5]];portConstraint=eastwest;" vertex="1" parent="vYBXI7EpYj5DPCw9PO8Z-1">
          <mxGeometry y="52" width="140" height="26" as="geometry" />
        </mxCell>
        <mxCell id="vYBXI7EpYj5DPCw9PO8Z-4" value="+ Monto" style="text;strokeColor=none;fillColor=none;align=left;verticalAlign=top;spacingLeft=4;spacingRight=4;overflow=hidden;rotatable=0;points=[[0,0.5],[1,0.5]];portConstraint=eastwest;" vertex="1" parent="vYBXI7EpYj5DPCw9PO8Z-1">
          <mxGeometry y="78" width="140" height="26" as="geometry" />
        </mxCell>
        <mxCell id="vYBXI7EpYj5DPCw9PO8Z-5" value="Vendedor" style="swimlane;fontStyle=0;childLayout=stackLayout;horizontal=1;startSize=26;fillColor=none;horizontalStack=0;resizeParent=1;resizeParentMax=0;resizeLast=0;collapsible=1;marginBottom=0;" vertex="1" parent="1">
          <mxGeometry x="425" y="278" width="140" height="78" as="geometry" />
        </mxCell>
        <mxCell id="vYBXI7EpYj5DPCw9PO8Z-6" value="+ DNI" style="text;strokeColor=none;fillColor=none;align=left;verticalAlign=top;spacingLeft=4;spacingRight=4;overflow=hidden;rotatable=0;points=[[0,0.5],[1,0.5]];portConstraint=eastwest;" vertex="1" parent="vYBXI7EpYj5DPCw9PO8Z-5">
          <mxGeometry y="26" width="140" height="26" as="geometry" />
        </mxCell>
        <mxCell id="vYBXI7EpYj5DPCw9PO8Z-7" value="+ Nombre" style="text;strokeColor=none;fillColor=none;align=left;verticalAlign=top;spacingLeft=4;spacingRight=4;overflow=hidden;rotatable=0;points=[[0,0.5],[1,0.5]];portConstraint=eastwest;" vertex="1" parent="vYBXI7EpYj5DPCw9PO8Z-5">
          <mxGeometry y="52" width="140" height="26" as="geometry" />
        </mxCell>
        <mxCell id="vYBXI7EpYj5DPCw9PO8Z-9" value="Reporte" style="swimlane;fontStyle=0;childLayout=stackLayout;horizontal=1;startSize=26;fillColor=none;horizontalStack=0;resizeParent=1;resizeParentMax=0;resizeLast=0;collapsible=1;marginBottom=0;" vertex="1" parent="1">
          <mxGeometry x="40" y="278" width="140" height="52" as="geometry" />
        </mxCell>
        <mxCell id="vYBXI7EpYj5DPCw9PO8Z-10" value="+Fecha" style="text;strokeColor=none;fillColor=none;align=left;verticalAlign=top;spacingLeft=4;spacingRight=4;overflow=hidden;rotatable=0;points=[[0,0.5],[1,0.5]];portConstraint=eastwest;" vertex="1" parent="vYBXI7EpYj5DPCw9PO8Z-9">
          <mxGeometry y="26" width="140" height="26" as="geometry" />
        </mxCell>
        <mxCell id="vYBXI7EpYj5DPCw9PO8Z-13" value="Inventario" style="swimlane;fontStyle=0;childLayout=stackLayout;horizontal=1;startSize=26;fillColor=none;horizontalStack=0;resizeParent=1;resizeParentMax=0;resizeLast=0;collapsible=1;marginBottom=0;" vertex="1" parent="1">
          <mxGeometry x="210" y="278" width="140" height="52" as="geometry" />
        </mxCell>
        <mxCell id="vYBXI7EpYj5DPCw9PO8Z-14" value="+Stock" style="text;strokeColor=none;fillColor=none;align=left;verticalAlign=top;spacingLeft=4;spacingRight=4;overflow=hidden;rotatable=0;points=[[0,0.5],[1,0.5]];portConstraint=eastwest;" vertex="1" parent="vYBXI7EpYj5DPCw9PO8Z-13">
          <mxGeometry y="26" width="140" height="26" as="geometry" />
        </mxCell>
        <mxCell id="vYBXI7EpYj5DPCw9PO8Z-17" value="ProveedorÂ " style="swimlane;fontStyle=0;childLayout=stackLayout;horizontal=1;startSize=26;fillColor=none;horizontalStack=0;resizeParent=1;resizeParentMax=0;resizeLast=0;collapsible=1;marginBottom=0;" vertex="1" parent="1">
          <mxGeometry x="30" y="12" width="140" height="78" as="geometry" />
        </mxCell>
        <mxCell id="vYBXI7EpYj5DPCw9PO8Z-18" value="+Email" style="text;strokeColor=none;fillColor=none;align=left;verticalAlign=top;spacingLeft=4;spacingRight=4;overflow=hidden;rotatable=0;points=[[0,0.5],[1,0.5]];portConstraint=eastwest;" vertex="1" parent="vYBXI7EpYj5DPCw9PO8Z-17">
          <mxGeometry y="26" width="140" height="26" as="geometry" />
        </mxCell>
        <mxCell id="vYBXI7EpYj5DPCw9PO8Z-19" value="+Direccion" style="text;strokeColor=none;fillColor=none;align=left;verticalAlign=top;spacingLeft=4;spacingRight=4;overflow=hidden;rotatable=0;points=[[0,0.5],[1,0.5]];portConstraint=eastwest;" vertex="1" parent="vYBXI7EpYj5DPCw9PO8Z-17">
          <mxGeometry y="52" width="140" height="26" as="geometry" />
        </mxCell>
        <mxCell id="vYBXI7EpYj5DPCw9PO8Z-21" value="Administrador" style="swimlane;fontStyle=0;childLayout=stackLayout;horizontal=1;startSize=26;fillColor=none;horizontalStack=0;resizeParent=1;resizeParentMax=0;resizeLast=0;collapsible=1;marginBottom=0;" vertex="1" parent="1">
          <mxGeometry x="130" y="129" width="140" height="78" as="geometry" />
        </mxCell>
        <mxCell id="vYBXI7EpYj5DPCw9PO8Z-22" value="+Usuario" style="text;strokeColor=none;fillColor=none;align=left;verticalAlign=top;spacingLeft=4;spacingRight=4;overflow=hidden;rotatable=0;points=[[0,0.5],[1,0.5]];portConstraint=eastwest;" vertex="1" parent="vYBXI7EpYj5DPCw9PO8Z-21">
          <mxGeometry y="26" width="140" height="26" as="geometry" />
        </mxCell>
        <mxCell id="vYBXI7EpYj5DPCw9PO8Z-23" value="+Password" style="text;strokeColor=none;fillColor=none;align=left;verticalAlign=top;spacingLeft=4;spacingRight=4;overflow=hidden;rotatable=0;points=[[0,0.5],[1,0.5]];portConstraint=eastwest;" vertex="1" parent="vYBXI7EpYj5DPCw9PO8Z-21">
          <mxGeometry y="52" width="140" height="26" as="geometry" />
        </mxCell>
        <mxCell id="vYBXI7EpYj5DPCw9PO8Z-25" value="Servicio" style="swimlane;fontStyle=0;childLayout=stackLayout;horizontal=1;startSize=26;fillColor=none;horizontalStack=0;resizeParent=1;resizeParentMax=0;resizeLast=0;collapsible=1;marginBottom=0;" vertex="1" parent="1">
          <mxGeometry x="425" y="160" width="140" height="78" as="geometry" />
        </mxCell>
        <mxCell id="vYBXI7EpYj5DPCw9PO8Z-26" value="+Precio" style="text;strokeColor=none;fillColor=none;align=left;verticalAlign=top;spacingLeft=4;spacingRight=4;overflow=hidden;rotatable=0;points=[[0,0.5],[1,0.5]];portConstraint=eastwest;" vertex="1" parent="vYBXI7EpYj5DPCw9PO8Z-25">
          <mxGeometry y="26" width="140" height="26" as="geometry" />
        </mxCell>
        <mxCell id="vYBXI7EpYj5DPCw9PO8Z-27" value="+codigo" style="text;strokeColor=none;fillColor=none;align=left;verticalAlign=top;spacingLeft=4;spacingRight=4;overflow=hidden;rotatable=0;points=[[0,0.5],[1,0.5]];portConstraint=eastwest;" vertex="1" parent="vYBXI7EpYj5DPCw9PO8Z-25">
          <mxGeometry y="52" width="140" height="26" as="geometry" />
        </mxCell>
        <mxCell id="vYBXI7EpYj5DPCw9PO8Z-29" value="Producto" style="swimlane;fontStyle=0;childLayout=stackLayout;horizontal=1;startSize=26;fillColor=none;horizontalStack=0;resizeParent=1;resizeParentMax=0;resizeLast=0;collapsible=1;marginBottom=0;" vertex="1" parent="1">
          <mxGeometry x="425" y="25" width="140" height="104" as="geometry" />
        </mxCell>
        <mxCell id="vYBXI7EpYj5DPCw9PO8Z-30" value="+Codigo" style="text;strokeColor=none;fillColor=none;align=left;verticalAlign=top;spacingLeft=4;spacingRight=4;overflow=hidden;rotatable=0;points=[[0,0.5],[1,0.5]];portConstraint=eastwest;" vertex="1" parent="vYBXI7EpYj5DPCw9PO8Z-29">
          <mxGeometry y="26" width="140" height="26" as="geometry" />
        </mxCell>
        <mxCell id="vYBXI7EpYj5DPCw9PO8Z-31" value="+Precio" style="text;strokeColor=none;fillColor=none;align=left;verticalAlign=top;spacingLeft=4;spacingRight=4;overflow=hidden;rotatable=0;points=[[0,0.5],[1,0.5]];portConstraint=eastwest;" vertex="1" parent="vYBXI7EpYj5DPCw9PO8Z-29">
          <mxGeometry y="52" width="140" height="26" as="geometry" />
        </mxCell>
        <mxCell id="vYBXI7EpYj5DPCw9PO8Z-32" value="+ field: type" style="text;strokeColor=none;fillColor=none;align=left;verticalAlign=top;spacingLeft=4;spacingRight=4;overflow=hidden;rotatable=0;points=[[0,0.5],[1,0.5]];portConstraint=eastwest;" vertex="1" parent="vYBXI7EpYj5DPCw9PO8Z-29">
          <mxGeometry y="78" width="140" height="26" as="geometry" />
        </mxCell>
        <mxCell id="vYBXI7EpYj5DPCw9PO8Z-33" value="Pedido" style="swimlane;fontStyle=0;childLayout=stackLayout;horizontal=1;startSize=26;fillColor=none;horizontalStack=0;resizeParent=1;resizeParentMax=0;resizeLast=0;collapsible=1;marginBottom=0;" vertex="1" parent="1">
          <mxGeometry x="640" y="86" width="140" height="74" as="geometry" />
        </mxCell>
        <mxCell id="vYBXI7EpYj5DPCw9PO8Z-34" value="+Fecha" style="text;strokeColor=none;fillColor=none;align=left;verticalAlign=top;spacingLeft=4;spacingRight=4;overflow=hidden;rotatable=0;points=[[0,0.5],[1,0.5]];portConstraint=eastwest;" vertex="1" parent="vYBXI7EpYj5DPCw9PO8Z-33">
          <mxGeometry y="26" width="140" height="22" as="geometry" />
        </mxCell>
        <mxCell id="vYBXI7EpYj5DPCw9PO8Z-35" value="+Hora" style="text;strokeColor=none;fillColor=none;align=left;verticalAlign=top;spacingLeft=4;spacingRight=4;overflow=hidden;rotatable=0;points=[[0,0.5],[1,0.5]];portConstraint=eastwest;" vertex="1" parent="vYBXI7EpYj5DPCw9PO8Z-33">
          <mxGeometry y="48" width="140" height="26" as="geometry" />
        </mxCell>
        <mxCell id="vYBXI7EpYj5DPCw9PO8Z-37" value="Cliente" style="swimlane;fontStyle=0;childLayout=stackLayout;horizontal=1;startSize=26;fillColor=none;horizontalStack=0;resizeParent=1;resizeParentMax=0;resizeLast=0;collapsible=1;marginBottom=0;" vertex="1" parent="1">
          <mxGeometry x="850" y="12" width="140" height="104" as="geometry" />
        </mxCell>
        <mxCell id="vYBXI7EpYj5DPCw9PO8Z-38" value="+DNI" style="text;strokeColor=none;fillColor=none;align=left;verticalAlign=top;spacingLeft=4;spacingRight=4;overflow=hidden;rotatable=0;points=[[0,0.5],[1,0.5]];portConstraint=eastwest;" vertex="1" parent="vYBXI7EpYj5DPCw9PO8Z-37">
          <mxGeometry y="26" width="140" height="26" as="geometry" />
        </mxCell>
        <mxCell id="vYBXI7EpYj5DPCw9PO8Z-39" value="+Nombre" style="text;strokeColor=none;fillColor=none;align=left;verticalAlign=top;spacingLeft=4;spacingRight=4;overflow=hidden;rotatable=0;points=[[0,0.5],[1,0.5]];portConstraint=eastwest;" vertex="1" parent="vYBXI7EpYj5DPCw9PO8Z-37">
          <mxGeometry y="52" width="140" height="26" as="geometry" />
        </mxCell>
        <mxCell id="vYBXI7EpYj5DPCw9PO8Z-40" value="+Direccion" style="text;strokeColor=none;fillColor=none;align=left;verticalAlign=top;spacingLeft=4;spacingRight=4;overflow=hidden;rotatable=0;points=[[0,0.5],[1,0.5]];portConstraint=eastwest;" vertex="1" parent="vYBXI7EpYj5DPCw9PO8Z-37">
          <mxGeometry y="78" width="140" height="26" as="geometry" />
        </mxCell>
        <mxCell id="vYBXI7EpYj5DPCw9PO8Z-41" value="Delivery" style="swimlane;fontStyle=0;childLayout=stackLayout;horizontal=1;startSize=26;fillColor=none;horizontalStack=0;resizeParent=1;resizeParentMax=0;resizeLast=0;collapsible=1;marginBottom=0;" vertex="1" parent="1">
          <mxGeometry x="850" y="134" width="140" height="52" as="geometry" />
        </mxCell>
        <mxCell id="vYBXI7EpYj5DPCw9PO8Z-45" value="Repartidor" style="swimlane;fontStyle=0;childLayout=stackLayout;horizontal=1;startSize=26;fillColor=none;horizontalStack=0;resizeParent=1;resizeParentMax=0;resizeLast=0;collapsible=1;marginBottom=0;" vertex="1" parent="1">
          <mxGeometry x="850" y="246" width="140" height="104" as="geometry" />
        </mxCell>
        <mxCell id="vYBXI7EpYj5DPCw9PO8Z-46" value="+DNI" style="text;strokeColor=none;fillColor=none;align=left;verticalAlign=top;spacingLeft=4;spacingRight=4;overflow=hidden;rotatable=0;points=[[0,0.5],[1,0.5]];portConstraint=eastwest;" vertex="1" parent="vYBXI7EpYj5DPCw9PO8Z-45">
          <mxGeometry y="26" width="140" height="26" as="geometry" />
        </mxCell>
        <mxCell id="vYBXI7EpYj5DPCw9PO8Z-47" value="+Nombre" style="text;strokeColor=none;fillColor=none;align=left;verticalAlign=top;spacingLeft=4;spacingRight=4;overflow=hidden;rotatable=0;points=[[0,0.5],[1,0.5]];portConstraint=eastwest;" vertex="1" parent="vYBXI7EpYj5DPCw9PO8Z-45">
          <mxGeometry y="52" width="140" height="26" as="geometry" />
        </mxCell>
        <mxCell id="vYBXI7EpYj5DPCw9PO8Z-48" value="+ field: type" style="text;strokeColor=none;fillColor=none;align=left;verticalAlign=top;spacingLeft=4;spacingRight=4;overflow=hidden;rotatable=0;points=[[0,0.5],[1,0.5]];portConstraint=eastwest;" vertex="1" parent="vYBXI7EpYj5DPCw9PO8Z-45">
          <mxGeometry y="78" width="140" height="26" as="geometry" />
        </mxCell>
        <mxCell id="vYBXI7EpYj5DPCw9PO8Z-49" value="Tipo de Usuario" style="swimlane;fontStyle=0;childLayout=stackLayout;horizontal=1;startSize=26;fillColor=none;horizontalStack=0;resizeParent=1;resizeParentMax=0;resizeLast=0;collapsible=1;marginBottom=0;" vertex="1" parent="1">
          <mxGeometry x="220" y="12" width="120" height="80" as="geometry" />
        </mxCell>
        <mxCell id="vYBXI7EpYj5DPCw9PO8Z-50" value="+Nombre" style="text;strokeColor=none;fillColor=none;align=left;verticalAlign=top;spacingLeft=4;spacingRight=4;overflow=hidden;rotatable=0;points=[[0,0.5],[1,0.5]];portConstraint=eastwest;" vertex="1" parent="vYBXI7EpYj5DPCw9PO8Z-49">
          <mxGeometry y="26" width="120" height="26" as="geometry" />
        </mxCell>
        <mxCell id="vYBXI7EpYj5DPCw9PO8Z-51" value="+codigo" style="text;strokeColor=none;fillColor=none;align=left;verticalAlign=top;spacingLeft=4;spacingRight=4;overflow=hidden;rotatable=0;points=[[0,0.5],[1,0.5]];portConstraint=eastwest;" vertex="1" parent="vYBXI7EpYj5DPCw9PO8Z-49">
          <mxGeometry y="52" width="120" height="28" as="geometry" />
        </mxCell>
        <mxCell id="vYBXI7EpYj5DPCw9PO8Z-54" value="+realiza compra" style="endArrow=none;html=1;edgeStyle=orthogonalEdgeStyle;" edge="1" parent="1" source="vYBXI7EpYj5DPCw9PO8Z-19" target="vYBXI7EpYj5DPCw9PO8Z-21">
          <mxGeometry x="-0.2523" y="-30" relative="1" as="geometry">
            <mxPoint x="86" y="110" as="sourcePoint" />
            <mxPoint x="200" y="154" as="targetPoint" />
            <Array as="points">
              <mxPoint x="100" y="167" />
            </Array>
            <mxPoint as="offset" />
          </mxGeometry>
        </mxCell>
        <mxCell id="vYBXI7EpYj5DPCw9PO8Z-57" value="+administra" style="endArrow=none;html=1;" edge="1" parent="1" source="vYBXI7EpYj5DPCw9PO8Z-21" target="vYBXI7EpYj5DPCw9PO8Z-29">
          <mxGeometry relative="1" as="geometry">
            <mxPoint x="300" y="193" as="sourcePoint" />
            <mxPoint x="460" y="193" as="targetPoint" />
          </mxGeometry>
        </mxCell>
        <mxCell id="vYBXI7EpYj5DPCw9PO8Z-60" value="+administra" style="endArrow=none;html=1;" edge="1" parent="1" source="vYBXI7EpYj5DPCw9PO8Z-21" target="vYBXI7EpYj5DPCw9PO8Z-25">
          <mxGeometry relative="1" as="geometry">
            <mxPoint x="340" y="260" as="sourcePoint" />
            <mxPoint x="500" y="260" as="targetPoint" />
          </mxGeometry>
        </mxCell>
        <mxCell id="vYBXI7EpYj5DPCw9PO8Z-63" value="+genera" style="endArrow=none;html=1;" edge="1" parent="1" source="vYBXI7EpYj5DPCw9PO8Z-21" target="vYBXI7EpYj5DPCw9PO8Z-9">
          <mxGeometry relative="1" as="geometry">
            <mxPoint x="50" y="263.5" as="sourcePoint" />
            <mxPoint x="210" y="263.5" as="targetPoint" />
          </mxGeometry>
        </mxCell>
        <mxCell id="vYBXI7EpYj5DPCw9PO8Z-66" value="+actualiza" style="endArrow=none;html=1;entryX=0.671;entryY=0;entryDx=0;entryDy=0;entryPerimeter=0;" edge="1" parent="1" source="vYBXI7EpYj5DPCw9PO8Z-13" target="vYBXI7EpYj5DPCw9PO8Z-1">
          <mxGeometry relative="1" as="geometry">
            <mxPoint x="269.09999999999997" y="345.02199999999993" as="sourcePoint" />
            <mxPoint x="180.00000000000006" y="399.99800000000005" as="targetPoint" />
          </mxGeometry>
        </mxCell>
        <mxCell id="vYBXI7EpYj5DPCw9PO8Z-67" value="+obtiene" style="endArrow=none;html=1;" edge="1" parent="1" source="vYBXI7EpYj5DPCw9PO8Z-9" target="vYBXI7EpYj5DPCw9PO8Z-1">
          <mxGeometry relative="1" as="geometry">
            <mxPoint x="60" y="368.5" as="sourcePoint" />
            <mxPoint x="220" y="368.5" as="targetPoint" />
          </mxGeometry>
        </mxCell>
        <mxCell id="vYBXI7EpYj5DPCw9PO8Z-70" value="+actualiza" style="endArrow=none;html=1;" edge="1" parent="1" source="vYBXI7EpYj5DPCw9PO8Z-21" target="vYBXI7EpYj5DPCw9PO8Z-13">
          <mxGeometry relative="1" as="geometry">
            <mxPoint x="287.37372881355935" y="250" as="sourcePoint" />
            <mxPoint x="220.000847457627" y="303" as="targetPoint" />
          </mxGeometry>
        </mxCell>
        <mxCell id="vYBXI7EpYj5DPCw9PO8Z-71" value="+administra&amp;nbsp;" style="endArrow=none;html=1;" edge="1" parent="1" source="vYBXI7EpYj5DPCw9PO8Z-21" target="vYBXI7EpYj5DPCw9PO8Z-5">
          <mxGeometry relative="1" as="geometry">
            <mxPoint x="378.1687500000001" y="225" as="sourcePoint" />
            <mxPoint x="330.00000000000006" y="295" as="targetPoint" />
          </mxGeometry>
        </mxCell>
        <mxCell id="vYBXI7EpYj5DPCw9PO8Z-72" value="+tiene" style="endArrow=none;html=1;entryX=0.5;entryY=0;entryDx=0;entryDy=0;" edge="1" parent="1" source="vYBXI7EpYj5DPCw9PO8Z-49" target="vYBXI7EpYj5DPCw9PO8Z-21">
          <mxGeometry relative="1" as="geometry">
            <mxPoint x="170" y="134" as="sourcePoint" />
            <mxPoint x="330" y="134" as="targetPoint" />
          </mxGeometry>
        </mxCell>
        <mxCell id="vYBXI7EpYj5DPCw9PO8Z-75" value="+realiza" style="endArrow=none;html=1;" edge="1" parent="1" source="vYBXI7EpYj5DPCw9PO8Z-33" target="vYBXI7EpYj5DPCw9PO8Z-37">
          <mxGeometry relative="1" as="geometry">
            <mxPoint x="750" y="99.4565217391305" as="sourcePoint" />
            <mxPoint x="840" y="104.54347826086962" as="targetPoint" />
          </mxGeometry>
        </mxCell>
        <mxCell id="vYBXI7EpYj5DPCw9PO8Z-76" value="+contiene" style="endArrow=none;html=1;" edge="1" parent="1" source="vYBXI7EpYj5DPCw9PO8Z-33" target="vYBXI7EpYj5DPCw9PO8Z-41">
          <mxGeometry relative="1" as="geometry">
            <mxPoint x="770" y="196.4565217391305" as="sourcePoint" />
            <mxPoint x="860" y="201.54347826086962" as="targetPoint" />
          </mxGeometry>
        </mxCell>
        <mxCell id="vYBXI7EpYj5DPCw9PO8Z-77" value="+realiza" style="endArrow=none;html=1;" edge="1" parent="1" source="vYBXI7EpYj5DPCw9PO8Z-41" target="vYBXI7EpYj5DPCw9PO8Z-45">
          <mxGeometry relative="1" as="geometry">
            <mxPoint x="620" y="203.4565217391305" as="sourcePoint" />
            <mxPoint x="710" y="208.54347826086962" as="targetPoint" />
          </mxGeometry>
        </mxCell>
        <mxCell id="vYBXI7EpYj5DPCw9PO8Z-78" value="+contiene" style="endArrow=none;html=1;" edge="1" parent="1" source="vYBXI7EpYj5DPCw9PO8Z-29" target="vYBXI7EpYj5DPCw9PO8Z-33">
          <mxGeometry relative="1" as="geometry">
            <mxPoint x="530" y="99.4565217391305" as="sourcePoint" />
            <mxPoint x="620" y="104.54347826086962" as="targetPoint" />
          </mxGeometry>
        </mxCell>
        <mxCell id="vYBXI7EpYj5DPCw9PO8Z-79" value="+contiene" style="endArrow=none;html=1;" edge="1" parent="1" source="vYBXI7EpYj5DPCw9PO8Z-25" target="vYBXI7EpYj5DPCw9PO8Z-33">
          <mxGeometry relative="1" as="geometry">
            <mxPoint x="640" y="223.4565217391305" as="sourcePoint" />
            <mxPoint x="730" y="228.54347826086962" as="targetPoint" />
          </mxGeometry>
        </mxCell>
        <mxCell id="vYBXI7EpYj5DPCw9PO8Z-80" value="+atiende pedido" style="endArrow=none;html=1;" edge="1" parent="1" source="vYBXI7EpYj5DPCw9PO8Z-5" target="vYBXI7EpYj5DPCw9PO8Z-33">
          <mxGeometry relative="1" as="geometry">
            <mxPoint x="540" y="184.18181818181813" as="sourcePoint" />
            <mxPoint x="620" y="155.81818181818176" as="targetPoint" />
          </mxGeometry>
        </mxCell>
      </root>
    </mxGraphModel>
  </diagram>
</mxfile>
